<svg width="32" height="32" viewBox="0 0 32 32" fill="none" xmlns="http://www.w3.org/2000/svg">
<path d="M22.6665 22.6534C20.8665 22.6534 19.7332 23.2134 18.7332 23.7201C17.8665 24.1601 17.1598 24.5201 15.9998 24.5201C14.7998 24.5201 14.1332 24.1867 13.2665 23.7201C12.2665 23.2134 11.1732 22.6534 9.33317 22.6534C7.49317 22.6534 6.39984 23.2134 5.39984 23.7201C4.8265 24.0134 4.31984 24.2667 3.7065 24.4134C3.1065 24.5467 2.6665 25.0267 2.6665 25.6267V25.7601C2.6665 26.5601 3.41317 27.1334 4.1865 26.9734C5.17317 26.7734 5.91984 26.4001 6.59984 26.0534C7.4665 25.6134 8.15984 25.2534 9.33317 25.2534C10.5065 25.2534 11.1998 25.5867 12.0665 26.0534C13.0665 26.5601 14.1598 27.1201 15.9998 27.1201C17.8398 27.1201 18.9332 26.5601 19.9332 26.0534C20.7998 25.6134 21.5065 25.2534 22.6665 25.2534C23.8665 25.2534 24.5332 25.5867 25.3998 26.0534C26.0932 26.4001 26.8398 26.7867 27.8398 26.9867C28.02 27.0219 28.2056 27.0171 28.3837 26.9726C28.5617 26.9281 28.7279 26.8451 28.8703 26.7293C29.0127 26.6136 29.128 26.468 29.208 26.3028C29.288 26.1376 29.3307 25.9569 29.3332 25.7734V25.6534C29.3332 25.0401 28.8798 24.5601 28.2798 24.4267C27.6665 24.2934 27.1732 24.0401 26.5998 23.7334C25.5998 23.2134 24.4665 22.6534 22.6665 22.6534ZM22.6665 16.7201C20.8665 16.7201 19.7332 17.2934 18.7332 17.7867C17.8665 18.2134 17.1598 18.5867 15.9998 18.5867C14.7998 18.5867 14.1332 18.2534 13.2665 17.7867C12.2665 17.2801 11.1732 16.7201 9.33317 16.7201C7.49317 16.7201 6.39984 17.2934 5.39984 17.7867C4.8265 18.0667 4.31984 18.3334 3.69317 18.4801C3.1065 18.6134 2.6665 19.0934 2.6665 19.6934V19.8267C2.66658 20.011 2.70773 20.193 2.78697 20.3594C2.86621 20.5258 2.98154 20.6724 3.12457 20.7886C3.2676 20.9048 3.43474 20.9877 3.61382 21.0312C3.7929 21.0747 3.97943 21.0777 4.15984 21.0401C5.15984 20.8401 5.9065 20.4534 6.59984 20.1201C7.4665 19.6534 8.13317 19.3201 9.33317 19.3201C10.5332 19.3201 11.1998 19.6534 12.0665 20.1201C13.0665 20.6267 14.1598 21.1867 15.9998 21.1867C17.8398 21.1867 18.9332 20.6134 19.9332 20.1201C20.7998 19.6534 21.4665 19.3201 22.6665 19.3201C23.8665 19.3201 24.5332 19.6534 25.3998 20.1201C26.0932 20.4667 26.8398 20.8534 27.8398 21.0534C28.0211 21.0888 28.2079 21.0836 28.3869 21.0384C28.5659 20.9932 28.7327 20.9089 28.8754 20.7917C29.0181 20.6745 29.1331 20.5273 29.2122 20.3604C29.2914 20.1936 29.3327 20.0114 29.3332 19.8267V19.7067C29.3332 19.0934 28.8798 18.6134 28.2798 18.4801C27.6665 18.3467 27.1732 18.0934 26.5998 17.7867C25.5998 17.2801 24.4665 16.7201 22.6665 16.7201ZM26.5998 5.94673C25.5998 5.44007 24.4932 4.88007 22.6665 4.88007C20.8398 4.88007 19.7332 5.44007 18.7332 5.94673C17.8665 6.3734 17.1598 6.74673 15.9998 6.74673C14.7998 6.74673 14.1332 6.4134 13.2665 5.94673C12.2665 5.4534 11.1732 4.88007 9.33317 4.88007C7.49317 4.88007 6.39984 5.44007 5.39984 5.94673C4.8265 6.24007 4.31984 6.4934 3.7065 6.64007C3.1065 6.7734 2.6665 7.2534 2.6665 7.8534V7.94673C2.6665 8.74673 3.3865 9.3334 4.15984 9.1734C5.15984 8.9734 5.9065 8.58673 6.59984 8.2534C7.4665 7.8134 8.15984 7.4534 9.33317 7.4534C10.5065 7.4534 11.1998 7.78673 12.0665 8.2534C13.0665 8.76007 14.1598 9.32007 15.9998 9.32007C17.8398 9.32007 18.9332 8.74673 19.9332 8.2534C20.7998 7.82673 21.5065 7.4534 22.6665 7.4534C23.8665 7.4534 24.5332 7.78673 25.3998 8.2534C26.0932 8.60007 26.8398 8.98673 27.8398 9.18673C28.0211 9.22209 28.2079 9.21697 28.3869 9.17174C28.5659 9.1265 28.7327 9.04228 28.8754 8.92508C29.0181 8.80788 29.1331 8.6606 29.2122 8.49378C29.2914 8.32696 29.3327 8.14471 29.3332 7.96007V7.84007C29.3332 7.22673 28.8798 6.74673 28.2798 6.6134C27.6665 6.48007 27.1732 6.24007 26.5998 5.94673ZM22.6665 10.7867C20.8665 10.7867 19.7332 11.3601 18.7332 11.8534C17.8665 12.3201 17.1998 12.6534 15.9998 12.6534C14.7998 12.6534 14.1332 12.3201 13.2665 11.8534C12.2665 11.3467 11.1732 10.7867 9.33317 10.7867C7.49317 10.7867 6.39984 11.3601 5.39984 11.8534C4.8265 12.1601 4.33317 12.4134 3.71984 12.5467C3.11984 12.6801 2.6665 13.1601 2.6665 13.7734V13.8934C2.66658 14.0777 2.70773 14.2596 2.78697 14.426C2.86621 14.5924 2.98154 14.7391 3.12457 14.8553C3.2676 14.9715 3.43474 15.0544 3.61382 15.0978C3.7929 15.1413 3.97943 15.1444 4.15984 15.1067C5.15984 14.9067 5.9065 14.5201 6.59984 14.1867C7.4665 13.7601 8.17317 13.3867 9.33317 13.3867C10.4932 13.3867 11.1998 13.7201 12.0665 14.1867C13.0665 14.6934 14.1598 15.2534 15.9998 15.2534C17.8398 15.2534 18.9332 14.6801 19.9332 14.1867C20.7998 13.7601 21.5065 13.3867 22.6665 13.3867C23.8665 13.3867 24.5332 13.7201 25.3998 14.1867C26.0932 14.5334 26.8398 14.9201 27.8398 15.1201C28.02 15.1552 28.2056 15.1504 28.3837 15.1059C28.5617 15.0614 28.7279 14.9784 28.8703 14.8627C29.0127 14.7469 29.128 14.6013 29.208 14.4362C29.288 14.271 29.3307 14.0902 29.3332 13.9067V13.7867C29.3332 13.1734 28.8798 12.6934 28.2798 12.5601C27.6665 12.4267 27.1732 12.1734 26.5998 11.8667C25.5998 11.3467 24.4665 10.7867 22.6665 10.7867Z" fill="url(#paint0_linear_65_349)"/>
<defs>
<linearGradient id="paint0_linear_65_349" x1="15.9998" y1="4.88007" x2="15.9998" y2="27.1201" gradientUnits="userSpaceOnUse">
<stop stop-color="#633FF3"/>
<stop offset="1" stop-color="#3E28C8"/>
</linearGradient>
</defs>
</svg>
