<svg width="18" height="10" viewBox="0 0 18 10" fill="none" xmlns="http://www.w3.org/2000/svg">
<path fill-rule="evenodd" clip-rule="evenodd" d="M10.1649 0.449818C10.4688 -0.0113686 11.089 -0.138914 11.5502 0.164938L17.5502 4.11802C17.8294 4.30198 17.9982 4.6133 18 4.94766C18.0018 5.28201 17.8364 5.59515 17.5592 5.78212L11.5592 9.82904C11.1013 10.1379 10.4798 10.017 10.171 9.55917C9.86213 9.1013 9.98295 8.47977 10.4408 8.17094L13.7291 5.95307H1C0.447715 5.95307 0 5.50536 0 4.95307C0 4.40079 0.447715 3.95307 1 3.95307H13.6646L10.4498 1.83504C9.98864 1.53119 9.8611 0.911004 10.1649 0.449818Z" fill="white"/>
</svg>
