<svg width="136" height="32" viewBox="0 0 136 32" fill="none" xmlns="http://www.w3.org/2000/svg">
<path d="M5.13273 12.534C5.79265 11.4593 6.69699 10.5861 7.84574 9.91436C9.01894 9.24265 10.351 8.9068 11.8419 8.9068C13.5773 8.9068 15.1415 9.37699 16.5347 10.3174C17.9523 11.2578 19.0644 12.6012 19.871 14.3476C20.702 16.0672 21.1175 18.0689 21.1175 20.3526C21.1175 22.6364 20.702 24.665 19.871 26.4383C19.0644 28.1847 17.9523 29.5416 16.5347 30.5088C15.1415 31.4761 13.5773 31.9597 11.8419 31.9597C10.3266 31.9597 8.9945 31.6373 7.84574 30.9924C6.72143 30.3207 5.81709 29.461 5.13273 28.4131V31.597H0V1.7733H5.13273V12.534ZM15.8748 20.3526C15.8748 19.0092 15.6182 17.8539 15.1049 16.8866C14.6161 15.8925 13.9561 15.1402 13.1251 14.6297C12.323 14.1205 11.4117 13.8561 10.4854 13.864C9.55665 13.864 8.67676 14.1327 7.84574 14.67C7.03917 15.1805 6.37925 15.9328 5.86598 16.927C5.37714 17.9211 5.13273 19.0898 5.13273 20.4333C5.13273 21.7767 5.37714 22.9454 5.86598 23.9395C6.37925 24.9337 7.03917 25.6994 7.84574 26.2368C8.67676 26.7473 9.55665 27.0025 10.4854 27.0025C11.4387 27.0025 12.3185 26.7338 13.1251 26.1965C13.9561 25.6591 14.6161 24.8934 15.1049 23.8992C15.6182 22.9051 15.8748 21.7229 15.8748 20.3526ZM27.4499 6.60957C26.5456 6.60957 25.7879 6.30059 25.1768 5.68262C24.5903 5.03778 24.297 4.24517 24.297 3.30479C24.297 2.3644 24.5903 1.58522 25.1768 0.967255C25.7879 0.322418 26.5456 0 27.4499 0C28.3543 0 29.0997 0.322418 29.6863 0.967255C30.2974 1.58522 30.6029 2.3644 30.6029 3.30479C30.6029 4.24517 30.2974 5.03778 29.6863 5.68262C29.0997 6.30059 28.3543 6.60957 27.4499 6.60957ZM29.9796 9.26952V31.597H24.8469V9.26952H29.9796ZM47.0765 31.597L40.184 22.0856V31.597H35.0512V1.7733H40.184V18.7406L47.0032 9.26952H53.6757L44.7301 20.4736L53.749 31.597H47.0765ZM54.1228 20.4333C54.1228 18.1226 54.5505 16.1075 55.406 14.3879C56.2614 12.6415 57.4468 11.2981 58.9622 10.3577C60.4776 9.39043 62.2129 8.9068 64.1683 8.9068C66.6858 8.9068 68.7633 9.60537 70.4009 11.0025C72.0629 12.3728 73.175 14.3073 73.7371 16.806H68.2022C67.9089 15.8388 67.4078 15.0865 66.699 14.5491C66.0146 13.9849 65.1592 13.7028 64.1326 13.7028C62.6661 13.7028 61.5052 14.2939 60.6497 15.4761C59.7943 16.6314 59.3665 18.2838 59.3665 20.4333C59.3665 22.5558 59.7943 24.2082 60.6497 25.3904C61.5052 26.5458 62.6661 27.1234 64.1326 27.1234C66.2102 27.1234 67.5667 26.1024 68.2022 24.0605H73.7382C73.176 26.4786 72.0639 28.3997 70.4019 29.8237C68.7399 31.2477 66.6623 31.9597 64.1693 31.9597C62.214 31.9597 60.4786 31.4895 58.9632 30.5491C57.4599 29.5955 56.2283 28.1998 55.407 26.5189C54.5515 24.7725 54.1228 22.7439 54.1228 20.4333ZM81.6124 12.7355C82.2418 11.5863 83.1244 10.6299 84.1788 9.95466C85.2542 9.28296 86.4763 8.9471 87.845 8.9471V14.8715H86.4885C84.8754 14.8715 83.6533 15.288 82.8223 16.1209C82.0157 16.9538 81.6124 18.4047 81.6124 20.4736V31.597H76.4797V9.26952H81.6124V12.7355ZM103.583 28.4131C103.021 29.4341 102.105 30.2939 100.834 30.9924C99.5627 31.6641 98.194 32 96.7275 32C95.4565 32 94.3078 31.7179 93.2812 31.1537C92.2547 30.5894 91.4481 29.8102 90.8615 28.8161C90.2749 27.822 89.9816 26.6801 89.9816 25.3904C89.9816 23.3216 90.6782 21.6289 92.0714 20.3123C93.489 18.9958 95.6032 18.3375 98.414 18.3375H103.583C103.534 16.9135 103.156 15.7851 102.447 14.9521C101.762 14.0924 100.809 13.6625 99.5872 13.6625C98.5117 13.6625 97.6196 13.9849 96.9108 14.6297C96.202 15.2477 95.7498 16.1209 95.5543 17.2494H90.4216C90.666 15.6373 91.1915 14.1998 91.998 12.937C92.8218 11.6541 93.9332 10.6267 95.2243 9.95466C96.5686 9.22922 98.0718 8.8665 99.7338 8.8665C101.445 8.8665 102.985 9.25609 104.353 10.0353C105.713 10.7796 106.846 11.9417 107.616 13.3804C108.398 14.8312 108.789 16.5374 108.789 18.4987V31.597H103.583V28.4131ZM98.2306 27.4458C99.0861 27.4458 99.9171 27.2443 100.724 26.8413C101.555 26.4383 102.239 25.8338 102.777 25.0277C103.314 24.2217 103.583 23.2678 103.583 22.1662V22.005H98.7073C97.5341 22.005 96.6542 22.2603 96.0676 22.7708C95.5054 23.2813 95.2243 23.953 95.2243 24.7859C95.2243 25.5919 95.481 26.2368 95.9942 26.7204C96.532 27.204 97.2774 27.4458 98.2306 27.4458ZM119.614 13.9043V31.597H114.408V13.9043H112.098V9.26952H114.408V8.14106C114.408 5.4005 115.117 3.38539 116.534 2.09572C117.952 0.806045 120.091 0.201511 122.95 0.282116V5.03778C121.704 5.01092 120.836 5.23929 120.347 5.72292C119.858 6.20655 119.614 7.07976 119.614 8.34257V9.26952H126.284V3.74811H131.454V9.26952H136V13.9043H131.454V24.7053C131.454 25.4576 131.613 26.0084 131.93 26.3577C132.273 26.6801 132.835 26.8413 133.617 26.8413H136V31.597H132.774C128.448 31.597 126.284 29.2863 126.284 24.665V13.9043H119.614Z" fill="white"/>
</svg>
